# xmcd CD database file
# Copyright (C) 1996 Ti Kan
#
# Track frame offsets:
#  182
#  11572
#  25952
#  37895
#  51245
#  62652
#  74277
#  88337
#  106100
#  118087
#
# Disc length: 1703 seconds
#
# Revision: 1
# Processed by: cddbd v1.4b41PL1 Copyright (c) Steve Scherf et al.
# Submitted via: CDWizzard Release:4.12
#
DISCID=8106a50a
DTITLE=The Statler Brothers - Today's Gosple Favorites
DYEAR=1900
DGENRE=
TTITLE0=Turn Your Radio On
TTITLE1=A Different Song
TTITLE2=Blessed Be
TTITLE3=Love Lifted Me
TTITLE4=Jesus is the answer everytime
TTITLE5=Just a Little Talk with Jesus
TTITLE6=Precious Memories
TTITLE7=Rock of Ages
TTITLE8=I Believe I'll Live for Him
TTITLE9=I'll Fly Away
EXTD=
EXTT0=
EXTT1=
EXTT2=
EXTT3=
EXTT4=
EXTT5=
EXTT6=
EXTT7=
EXTT8=
EXTT9=
PLAYORDER=
